<svg width="45" height="40" viewBox="0 0 45 40" fill="none" xmlns="http://www.w3.org/2000/svg">
<path d="M45 16.8752V18.1252C45 19.1608 44.1605 20.0002 43.125 20.0002H42.5L40.4599 34.2805C40.196 36.128 38.6138 37.5002 36.7477 37.5002H8.25234C6.38617 37.5002 4.80398 36.128 4.54 34.2805L2.5 20.0002H1.875C0.839453 20.0002 0 19.1608 0 18.1252V16.8752C0 15.8397 0.839453 15.0002 1.875 15.0002H7.13602L15.4782 3.52983C16.2903 2.41327 17.8538 2.16631 18.9705 2.97842C20.0871 3.79053 20.334 5.35405 19.5219 6.47069L13.3185 15.0002H31.6815L25.4781 6.47061C24.666 5.35405 24.913 3.79046 26.0296 2.97835C27.1461 2.16624 28.7098 2.41311 29.5219 3.52975L37.864 15.0002H43.125C44.1605 15.0002 45 15.8397 45 16.8752ZM24.375 30.6252V21.8752C24.375 20.8397 23.5355 20.0002 22.5 20.0002C21.4645 20.0002 20.625 20.8397 20.625 21.8752V30.6252C20.625 31.6608 21.4645 32.5002 22.5 32.5002C23.5355 32.5002 24.375 31.6608 24.375 30.6252ZM33.125 30.6252V21.8752C33.125 20.8397 32.2855 20.0002 31.25 20.0002C30.2145 20.0002 29.375 20.8397 29.375 21.8752V30.6252C29.375 31.6608 30.2145 32.5002 31.25 32.5002C32.2855 32.5002 33.125 31.6608 33.125 30.6252ZM15.625 30.6252V21.8752C15.625 20.8397 14.7855 20.0002 13.75 20.0002C12.7145 20.0002 11.875 20.8397 11.875 21.8752V30.6252C11.875 31.6608 12.7145 32.5002 13.75 32.5002C14.7855 32.5002 15.625 31.6608 15.625 30.6252Z" fill="#06D6A0"/>
</svg>
