<svg width="40" height="40" viewBox="0 0 40 40" fill="none" xmlns="http://www.w3.org/2000/svg">
<path d="M20 6.6665C21.7681 6.6665 23.4638 7.36888 24.7141 8.61913C25.9643 9.86937 26.6667 11.5651 26.6667 13.3332C26.6667 15.1013 25.9643 16.797 24.7141 18.0472C23.4638 19.2975 21.7681 19.9998 20 19.9998C18.2319 19.9998 16.5362 19.2975 15.286 18.0472C14.0357 16.797 13.3334 15.1013 13.3334 13.3332C13.3334 11.5651 14.0357 9.86937 15.286 8.61913C16.5362 7.36888 18.2319 6.6665 20 6.6665ZM20 23.3332C27.3667 23.3332 33.3334 26.3165 33.3334 29.9998V33.3332H6.66669V29.9998C6.66669 26.3165 12.6334 23.3332 20 23.3332Z" fill="#06D6A0"/>
</svg>
